<?xml version="1.0" encoding="UTF-8"?>
<svg width="24px" height="24px" viewBox="0 0 24 24" version="1.1" xmlns="http://www.w3.org/2000/svg">
    <path d="M20.1,6.8C19.8,4.5,18,3,15.7,3H8.3C7.9,3,7.6,3.3,7.5,3.7L4.5,19.3C4.5,19.6,4.7,20,5,20h3.7c0.4,0,0.7-0.3,0.8-0.7 l0.8-4c0.1-0.4,0.4-0.7,0.8-0.7h2.6c2.3,0,4.1-1.5,4.4-3.8l0.2-1.3C18.5,8.2,19.5,7.4,20.1,6.8z M15.7,9.2 c-0.1,0.8-0.8,1.3-1.6,1.3h-2.1c-0.4,0-0.7,0.3-0.8,0.7l-0.8,4c-0.1,0.4-0.4,0.7-0.8,0.7H7.2c-0.4,0-0.7-0.3-0.8-0.7L8.3,4.7 C8.4,4.3,8.7,4,9.1,4h6.6c0.8,0,1.5,0.5,1.6,1.3L15.7,9.2z" fill="#666"/>
</svg>
